PathFileType	4	(X/Y/Z)	/Users/niels/Desktop/University/Third Semester/Perception and Action/Exam/Gymnastics Motion Tracking/Code for Gym Tracking/Analyzed Data/Webcam_Backflip/id3_1_trajectory_Sports2D/id3_1_trajectory_Sports2D_px_person00.trc
DataRate	CameraRate	NumFrames	NumMarkers	Units	OrigDataRate	OrigDataStartFrame	OrigNumFrames
29.8125	29.8125	12	22	m	29.8125	120	160
Frame#	Time	Hip			RHip			RKnee			RAnkle			RBigToe			RSmallToe			RHeel			LHip			LKnee			LAnkle			LBigToe			LSmallToe			LHeel			Neck			Head			Nose			RShoulder			RElbow			RWrist			LShoulder			LElbow			LWrist		
		X1	Y1	Z1	X2	Y2	Z2	X3	Y3	Z3	X4	Y4	Z4	X5	Y5	Z5	X6	Y6	Z6	X7	Y7	Z7	X8	Y8	Z8	X9	Y9	Z9	X10	Y10	Z10	X11	Y11	Z11	X12	Y12	Z12	X13	Y13	Z13	X14	Y14	Z14	X15	Y15	Z15	X16	Y16	Z16	X17	Y17	Z17	X18	Y18	Z18	X19	Y19	Z19	X20	Y20	Z20	X21	Y21	Z21	X22	Y22	Z22
120	4.025157232704402	0.8712008874438107	-0.5282569370250443	0.0	0.8764539409030163	-0.5261167073609455	0.0	0.9081993530015138	-0.6379510540530843	0.0	0.9295065991823649	-0.7595573487615987	0.0	0.9786947696304871	-0.763084119401559	0.0	0.9691891557456707	-0.7698444952016208	0.0	0.9210505328430754	-0.7761340791314436	0.0	0.8654477182479704	-0.5261152485637987	0.0	0.8888786779412614	-0.6377677047772001	0.0	0.9042269129138474	-0.756134622902593	0.0	0.9524654212668661	-0.7627317157198102	0.0	0.9443156826921747	-0.7618195034695615	0.0	0.8996792022175623	-0.770974554521668	0.0	0.8875125618915956	-0.37617196905154576	0.0	0.9362566612574618	-0.31880110567642955	0.0	0.929064468089726	-0.3653858119936117	0.0	0.8738684941755259	-0.3867648451830124	0.0	0.8591538839629222	-0.4570380692213567	0.0	0.923094137028053	-0.4947686984715233	0.0	0.8752875603357637	-0.39049327369203896	0.0	0.8712939315624639	-0.4733548444277029	0.0	0.9152819864630097	-0.5257873096929685	0.0
121	4.058700209643606	0.8825411773635934	-0.5500209561610364	0.0	0.88851220458105	-0.548201843086258	0.0	0.9199141023131587	-0.6593120279809999	0.0	0.9376036432849386	-0.7797569230887406	0.0	0.9857653679421464	-0.7834633822279402	0.0	0.9754097298117084	-0.7904580556573204	0.0	0.9291602424790583	-0.795105779552445	0.0	0.8762553318669126	-0.5483119314417819	0.0	0.8961739994854718	-0.658931124200218	0.0	0.9071306210062314	-0.7759212299643764	0.0	0.9527009563978405	-0.7836624021222686	0.0	0.9449567877185193	-0.7823776162262441	0.0	0.9026318616131933	-0.7902139587662775	0.0	0.8920141203608942	-0.39659849486340054	0.0	0.9350542374825879	-0.33561906100394057	0.0	0.931878053265655	-0.3825644469693103	0.0	0.8788573160659781	-0.4093238232093413	0.0	0.8664641277353106	-0.48105887497791133	0.0	0.9346708234030046	-0.5090138526311176	0.0	0.8802707910815699	-0.4125810468556308	0.0	0.8808562243576022	-0.4954765137701772	0.0	0.9288108925653095	-0.5421762931015809	0.0
122	4.092243186582809	0.8928853223825286	-0.5715178822943908	0.0	0.8993296878171149	-0.5699544320762766	0.0	0.929598051663246	-0.6805216376552362	0.0	0.9423341537761271	-0.7995243801524566	0.0	0.9893535293328443	-0.802466957998281	0.0	0.9780224948344713	-0.8100641217464828	0.0	0.9341220176440325	-0.8129987634091785	0.0	0.8864856190170587	-0.5702284124036373	0.0	0.9018616636502983	-0.6800228425823484	0.0	0.9082223246338215	-0.7955191596037385	0.0	0.9509430434142857	-0.8035665339096	0.0	0.9435720605999098	-0.801960676230382	0.0	0.9034871493339588	-0.8088506509032305	0.0	0.8969543767404714	-0.4172715885752561	0.0	0.933950179235924	-0.3532231318699472	0.0	0.9352206023968895	-0.39996948361385126	0.0	0.8846728238883887	-0.43232874291886636	0.0	0.874088515445684	-0.5052958735586297	0.0	0.9447600895138343	-0.5250007119997246	0.0	0.8858241984347218	-0.4348620404303039	0.0	0.8896816950184846	-0.516813333518176	0.0	0.9410156230967958	-0.5577956557892301	0.0
123	4.125786163522012	0.9018373773503472	-0.5907107161269854	0.0	0.9085016890321231	-0.5892880212266984	0.0	0.9370019033666525	-0.6997151572945509	0.0	0.9443357663280572	-0.817306263187676	0.0	0.990627473302366	-0.8184698508004236	0.0	0.9782388802333671	-0.8270466040630391	0.0	0.9365715964562071	-0.8284774448351171	0.0	0.8955428442011918	-0.5897685834928063	0.0	0.9060173594974698	-0.699175546881323	0.0	0.9082579059300395	-0.813322001462379	0.0	0.9482114362541002	-0.8209140946430936	0.0	0.9412086800493963	-0.8190214298203488	0.0	0.903070107563026	-0.8252885535280897	0.0	0.9023435533007336	-0.436172522814928	0.0	0.9339340885722102	-0.36997531222528707	0.0	0.9392697537055935	-0.41609016248909514	0.0	0.8912844759335631	-0.45329788231394874	0.0	0.8819383762302617	-0.5275160800507753	0.0	0.9534633392762721	-0.5418149262113459	0.0	0.891697827960301	-0.45502468449731726	0.0	0.8974826314513746	-0.5355688157739321	0.0	0.950946453546764	-0.5718299987203892	0.0
124	4.159329140461216	0.9092069847407509	-0.6056274621489643	0.0	0.9158870679600453	-0.6041714868736493	0.0	0.9423189099976563	-0.7150597108541215	0.0	0.9446799694926107	-0.83156341262532	0.0	0.9910125102912465	-0.8304775159295069	0.0	0.9775297690717073	-0.8401895812194589	0.0	0.9374938295364946	-0.8405011470584968	0.0	0.9030102885189953	-0.6048912505801961	0.0	0.9090108910267527	-0.714476750109956	0.0	0.9078384897015914	-0.8275860337269597	0.0	0.9454871355229736	-0.8343848874976122	0.0	0.9389592114679793	-0.8322393866917558	0.0	0.9020733179628363	-0.8380877820693634	0.0	0.9081420518999382	-0.45127314069632934	0.0	0.9356982436836055	-0.3838393303123013	0.0	0.9441024184929862	-0.42915694760370393	0.0	0.8984693414662739	-0.4698648398111374	0.0	0.8897874457625562	-0.5454417467210304	0.0	0.960860498923732	-0.5579758304947996	0.0	0.8976561839640517	-0.4708623948823746	0.0	0.9040367533988611	-0.5500602179185583	0.0	0.9579215064314497	-0.5836727924476456	0.0
125	4.192872117400419	0.9150849455944418	-0.6147792301227779	0.0	0.9216791753824044	-0.6130965731276027	0.0	0.9460159327244764	-0.7249713114009821	0.0	0.9444101303452668	-0.8409061986338039	0.0	0.9914365630162069	-0.8380191270874275	0.0	0.9768910306705804	-0.8486237484918052	0.0	0.9377757853482181	-0.8481999652150166	0.0	0.9088675677227476	-0.6140802119256512	0.0	0.9113358823024608	-0.7242363489672866	0.0	0.9073802498766327	-0.8367135425239415	0.0	0.9435340367229283	-0.8427943562393908	0.0	0.9376020083567971	-0.8404815466747158	0.0	0.9010246796956788	-0.8460857720612641	0.0	0.914292897873252	-0.4608684716298279	0.0	0.9393734157532551	-0.3928987095172437	0.0	0.9496760055489004	-0.4374535110784669	0.0	0.905915041555852	-0.4803223491390308	0.0	0.8972885726360554	-0.5572362957818645	0.0	0.9668893904197731	-0.5717264648368621	0.0	0.9035894320729776	-0.48072559470961246	0.0	0.9091878751495696	-0.5589597451312016	0.0	0.9617652379024482	-0.592669867951861	0.0
126	4.226415094339622	0.9198028443229876	-0.6174275574939275	0.0	0.9263131253179087	-0.6153661527866866	0.0	0.9486138863591963	-0.728372157368902	0.0	0.9442361046225256	-0.8442984774646926	0.0	0.9921269862095713	-0.8408950773331694	0.0	0.9767002130255087	-0.8517769216232398	0.0	0.9379793783343767	-0.8508430818090776	0.0	0.9134722742321582	-0.6166139210429641	0.0	0.9134664225905897	-0.7272942961591095	0.0	0.907132352911583	-0.8395395093318403	0.0	0.9426270653463807	-0.8451862672777462	0.0	0.9372950799421804	-0.8428765547981611	0.0	0.9002903068103336	-0.8484688219335849	0.0	0.9207348545679357	-0.4638421438423935	0.0	0.9446249944424792	-0.3958699035740892	0.0	0.955835596602211	-0.43972722354701593	0.0	0.9133013680717456	-0.4837996717409323	0.0	0.904049161682632	-0.5617761067531591	0.0	0.97130544951863	-0.5814283052500889	0.0	0.9095574364193201	-0.48372830615224743	0.0	0.9129081304787814	-0.5614151680972622	0.0	0.9628212727121185	-0.5978807169998368	0.0
127	4.259958071278826	0.9237659650491498	-0.6136030571953188	0.0	0.930250834016219	-0.6111055118397707	0.0	0.9506092528538588	-0.7248727261144494	0.0	0.9444893043670597	-0.8412838737087446	0.0	0.9928395770796746	-0.8391130463643778	0.0	0.9769274409153798	-0.8494996965785495	0.0	0.9383557997790579	-0.8480447994782835	0.0	0.9173185097748209	-0.6125666677300072	0.0	0.9158077260806333	-0.7232632447676609	0.0	0.9072053422622847	-0.8355390760304705	0.0	0.9425534094675596	-0.8411271976439438	0.0	0.9376590720892731	-0.8390170147656055	0.0	0.9000461679936782	-0.8448618180587883	0.0	0.9273910790233147	-0.4598419914682864	0.0	0.9509577068177648	-0.3923608592442149	0.0	0.9623646750077185	-0.4354807973856285	0.0	0.9203507174747466	-0.48019090785922297	0.0	0.9097893751241549	-0.558770318978211	0.0	0.9737895460579603	-0.58589787738861	0.0	0.9156891003009937	-0.4797523756209274	0.0	0.9153478427245141	-0.5570525697773975	0.0	0.9617858001596273	-0.5980749580075273	0.0
128	4.293501048218029	0.9272836280914372	-0.6039362678744322	0.0	0.9337685300676483	-0.601065022120173	0.0	0.952512596490335	-0.7148634525325935	0.0	0.9452406570678258	-0.8322145830116948	0.0	0.9932584793385281	-0.8330138333879107	0.0	0.9774657075620403	-0.8422541311082622	0.0	0.9389566813824741	-0.8400535904479243	0.0	0.9207551146171749	-0.6026185430898892	0.0	0.9187063415393569	-0.7126547057508015	0.0	0.907627800624287	-0.8250266623598494	0.0	0.942956063935126	-0.8310217840396563	0.0	0.9381797644081878	-0.8292353245969799	0.0	0.9002911033592185	-0.8354906897567418	0.0	0.9341354513231962	-0.44936265042541884	0.0	0.9579107106734359	-0.3828317137546853	0.0	0.9690455615081296	-0.4250307108543	0.0	0.9268971350444948	-0.4700741599634387	0.0	0.9144842410637046	-0.5487684773739816	0.0	0.9740949462532885	-0.584617453919275	0.0	0.9220171013433833	-0.46940042911853236	0.0	0.9169125409625998	-0.5461112374432894	0.0	0.9595981147001754	-0.5922632678496936	0.0
129	4.327044025157232	0.9305433913227434	-0.5894936612672672	0.0	0.9369282538997322	-0.5864180021970616	0.0	0.954830147285066	-0.6995413379032611	0.0	0.9464671806985775	-0.8182727450245995	0.0	0.9934361037080734	-0.8233182802155926	0.0	0.978465038559132	-0.8310886495626185	0.0	0.9397914178181032	-0.8277722267782044	0.0	0.9239002917737897	-0.5878870761661152	0.0	0.9224310545525993	-0.6968623410103357	0.0	0.9084655085847035	-0.8092682919088758	0.0	0.9436922933979326	-0.816229574082147	0.0	0.9386163689702974	-0.8147724614610344	0.0	0.9009956738260723	-0.8213150453508332	0.0	0.940797026009079	-0.43368683450343903	0.0	0.965117909546505	-0.3683996593464938	0.0	0.975711751450142	-0.40941666233349017	0.0	0.9329456115876134	-0.4546328238428017	0.0	0.9183708761426679	-0.5330199291560602	0.0	0.9722108200722851	-0.5777916377027942	0.0	0.9284224264854353	-0.45390537036653905	0.0	0.9182444455911082	-0.5296768442348715	0.0	0.9572382837432976	-0.5805758857013203	0.0
130	4.360587002096436	0.9337202041483591	-0.5717293417477264	0.0	0.9397931779453419	-0.5686736775990722	0.0	0.9579023039990321	-0.6807322015636946	0.0	0.9482000561368459	-0.8011091530758513	0.0	0.9938304567019138	-0.8110530882263478	0.0	0.9802311008060937	-0.8173888758736906	0.0	0.9409672744364819	-0.8124436009278838	0.0	0.9268166455389841	-0.5698955397455486	0.0	0.9270742431423125	-0.6778799429450801	0.0	0.9099136419047603	-0.7902350075396468	0.0	0.9449340960358936	-0.7988352234493192	0.0	0.9391772770264091	-0.7975813763545603	0.0	0.9022630166895712	-0.8038872076097355	0.0	0.9472233984533934	-0.414632828738306	0.0	0.9723473731891902	-0.35059673495112903	0.0	0.9822573886733226	-0.3902507091376855	0.0	0.9386450403692601	-0.43550532119169966	0.0	0.9218199595586135	-0.5132466134647017	0.0	0.9685665785775859	-0.5662517694854193	0.0	0.9347200794578261	-0.4349549628694485	0.0	0.9199173163860961	-0.50959705564623	0.0	0.9553313375159831	-0.5644975161499267	0.0
131	4.394129979035639	0.93707716221506	-0.5524240210325678	0.0	0.9426256754173324	-0.5496004299744616	0.0	0.9617354227844127	-0.6604959192281884	0.0	0.9505918746599313	-0.7824022558026923	0.0	0.9948039985105983	-0.797527575493399	0.0	0.9827649900660063	-0.8026737558393354	0.0	0.942735151083863	-0.795390422247347	0.0	0.9297372463496947	-0.5505006304701574	0.0	0.9324405862537523	-0.6577884436049725	0.0	0.9122537682188262	-0.7700431228954961	0.0	0.9470620366215657	-0.7811480797512715	0.0	0.9404488930781552	-0.7798127231626047	0.0	0.9043070649466307	-0.7849683795995317	0.0	0.9533227615322599	-0.3941816892996888	0.0	0.9794653599422374	-0.3311019584383318	0.0	0.9886290920096055	-0.3694720517924944	0.0	0.9441706733360793	-0.41458956762205024	0.0	0.9251558221717548	-0.4914002110268687	0.0	0.9640761201235146	-0.5512714993156221	0.0	0.9407633229059521	-0.4144489955393636	0.0	0.922056168104745	-0.48798195185337107	0.0	0.9539372180009725	-0.546105051687171	0.0
